<svg xmlns="http://www.w3.org/2000/svg" viewBox="0 0 212.28 65.98"><defs><style>.cls-1{fill:#fff;}</style></defs><title>Binch Press</title><g id="Layer_2" data-name="Layer 2"><g id="Layer_1-2" data-name="Layer 1"><path class="cls-1" d="M55.26,9.34a3.75,3.75,0,0,0-2.06-.49c-6.2,0-12,6.69-14.95,13.18C32.15,34.32,28.42,47.5,18.78,47.5c-2.36,0-4.92-1.67-4.92-4.23a4.38,4.38,0,0,1,1.87-3.44,25.66,25.66,0,0,0-2.56-.29C6.1,39.53,0,46.41,0,53.3,0,60.48,4.92,66,13.37,66c7.77,0,15.09-4.82,19.08-11.21a69.64,69.64,0,0,0,7-14.95C43.18,29.27,45.43,16.32,55.26,9.34Z"/><path class="cls-1" d="M70.6,16.52C70.6,6.79,59.88,0,43,0c-21,0-32.84,7.67-32.84,17.7,0,5.61,4.82,9.54,10.72,9.54,7.57,0,12.88-5.7,14.95-11.9A10.26,10.26,0,0,1,30.48,17c-2.06,0-4-1.18-4-3.44,0-4.92,6.29-9.15,17.5-9.15,10.62,0,16.72,4.92,16.72,11.31,0,5.08-3.85,9.71-8.16,9.65a4.08,4.08,0,0,1-4.08-4.13c-1.44,2.2-4.26,9-4.51,12.94a11,11,0,0,1,8.79-2.41c4,.92,7.33,5.14,7.33,10.6a6.54,6.54,0,0,1-6.56,6.49c-2.56,0-4.82-1.38-4.82-4.13a4.49,4.49,0,0,1,3.93-4A5.73,5.73,0,0,0,47.68,38a7.68,7.68,0,0,0-4.91,1.87,16.7,16.7,0,0,0-4.33,17.57C40.36,63.09,46.87,66,53,66,64.25,66,70.2,57.13,70.2,46c0-10.15-8.45-15.34-13.76-17.7C62.44,27.93,70.6,25,70.6,16.52Z"/><path class="cls-1" d="M88.39,26.45a6.79,6.79,0,1,0,0-13.57,6.79,6.79,0,0,0,0,13.57Z"/><path class="cls-1" d="M200.58,53.69c-2,0-2.75-1.38-2.75-3.15,0-4,3.84-8.36,3.84-13.18,0-4.52-2.85-7.47-7.47-7.47a13.16,13.16,0,0,0-5.7,1.38l-.1-.29c5.8-3.93,12.29-14.46,12.29-22,0-3.74-1.77-6.69-6.2-6.69-11.11,0-18.09,18.19-21.14,27.24L168.15,45c-2.88,4.82-8.1,9.4-13.49,9.4-5.21,0-7.08-3.64-7.08-7.77a15.43,15.43,0,0,1,6.79-13,4,4,0,0,0-.1,1.08,4.38,4.38,0,0,0,4.62,4.62,4.85,4.85,0,0,0,4.72-4.72c0-2.66-2.26-4.62-5.41-4.62-8.88,0-17.7,7.53-21.08,16.33-2,3.35-4.8,7.37-7.83,7.37-2.16,0-2.95-1.57-2.95-3.54,0-2.75,3.84-8,3.84-12.78,0-4.52-2.26-7.57-7.28-7.57-4.23,0-8.85,2.75-12,5.61l1.38-3.93H101.36L96.93,44.73c-2,3.73-5.2,9-8.84,9-2.16,0-2.95-1.57-2.95-3.25,0-2.46,1.08-5.31,5.8-19H79.83L74.23,48.28a31.64,31.64,0,0,0-1.87,9.64c0,3.84,1.87,7.87,7.18,7.87,5.16,0,9.86-4.57,13.62-9.75l-2.9,8.67h10.91l6.39-18.88c1.57-4.72,5.31-9.83,9.93-9.83,1.77,0,2.36,1.47,2.36,3,0,5.21-6.79,11.6-6.79,19.47,0,3.84,2.85,7.37,6.79,7.37,6.24,0,11.71-5.93,15.83-12.05,0,6.77,3.06,12.25,10.82,12.25,6.07,0,12.86-4.55,18.41-11.34L161.54,64.7h10.91l7.37-21.44c1.28-3.83,4-7.87,8.46-7.87a3,3,0,0,1,2.85,2.85c0,5.7-6.88,12.39-6.88,20.06,0,4.62,2.56,7.47,7.28,7.47,9.44,0,17-13.77,20.75-20.85l-2.56-.79C207.86,47.69,204.51,53.69,200.58,53.69ZM183.17,30.88c.49-2.75,4.82-20.95,8.75-20.95,1.38,0,1.67,1.47,1.67,2.56C193.4,17.8,188.58,25.86,183.17,30.88Z"/></g></g></svg>